
Music_Battle4_Ch1:
	sound_init 7, \ ; speed
	           DUTY_50, DUTY_50, \ ; duty cycle
	           $c1, \ ; unknown 1
	           5, 2, \ ; vibrato
	           $8b, $26, $b5 ; unknown 2
	speed 7
	stereo_panning $4
	unknown_volume $10
	fine_pitch $1
	duty_cycle DUTY_75, DUTY_75
	unknown_music_e9 $a1
	mark_loop ;------
	transpose 0
	octave 2
	note A_, 1
	rest 1
	octave 3
	note A_, 1
	rest 1
	note G_, 1
	rest 1
	note E_, 1
	rest 1
	note G_, 3
	note A_, 1
	rest 2
	note G_, 1
	note A_, 1
	octave 4
	note C_, 1
	rest 1
	octave 3
	note B_, 1
	rest 1
	note A_, 1
	rest 1
	note E_, 1
	rest 1
	note G_, 3
	note A_, 1
	rest 4
	octave 2
	note A_, 1
	rest 1
	octave 3
	note A_, 1
	rest 1
	note G_, 1
	rest 1
	note E_, 1
	rest 1
	note G_, 3
	note A_, 1
	rest 2
	octave 2
	note A_, 1
	note B_, 1
	octave 3
	note C_, 1
	rest 1
	octave 2
	note B_, 1
	rest 1
	octave 3
	note C_, 1
	rest 1
	note D_, 1
	rest 1
	note E_, 4
	note D_, 2
	rest 2
	note F_, 1
	rest 1
	note E_, 1
	rest 1
	note D_, 2
	note E_, 1
	note F_, 3
	note E_, 2
	note D_, 2
	note F_, 1
	rest 1
	note E_, 1
	rest 1
	note D_, 1
	rest 1
	note C_, 2
	note D_, 1
	note E_, 3
	note D_, 2
	note C_, 2
	note E_, 1
	rest 1
	note D_, 2
	note C_, 2
	octave 2
	note B_, 2
	note A_, 1
	note B_, 3
	octave 3
	note C_, 2
	note D_, 2
	note F_, 2
	note E_, 2
	note F_, 2
	note E_, 2
	note D_, 1
	note E_, 9
	octave 2
	note A_, 1
	rest 1
	octave 3
	note A_, 1
	rest 1
	note G_, 2
	note E_, 1
	note G_, 2
	note A_, 3
	octave 4
	note C_, 2
	octave 3
	note B_, 2
	note A_, 1
	rest 1
	octave 4
	note D_, 2
	note C_, 2
	octave 3
	note B_, 1
	octave 4
	note C_, 3
	octave 3
	note B_, 2
	octave 4
	note C_, 2
	note D_, 2
	note E_, 1
	octave 3
	note E_, 1
	octave 4
	note E_, 1
	rest 1
	note D_, 1
	octave 3
	note D_, 1
	octave 4
	note D_, 1
	rest 1
	note C_, 1
	octave 3
	note C_, 1
	octave 4
	note C_, 1
	rest 1
	octave 3
	note B_, 1
	rest 1
	octave 2
	note B_, 1
	rest 1
	octave 3
	note A_, 1
	rest 1
	note G_, 1
	rest 1
	note E_, 2
	note G_, 1
	rest 1
	note A_, 1
	note A_, 1
	note G_, 1
	rest 1
	note E_, 1
	rest 1
	note C_, 1
	rest 1
	repeat_loop 0 ;------

Music_Battle4_Ch2:
	sound_init 7, \ ; speed
	           DUTY_50, DUTY_50, \ ; duty cycle
	           $61, \ ; unknown 1
	           5, 2, \ ; vibrato
	           $8b, $26, $b5 ; unknown 2
	speed 7
	mark_loop ;------
	stereo_panning STEREO_LEFT
	fine_pitch $2
	transpose -24
	unknown_music_e9 $c1
	duty_cycle DUTY_12, DUTY_12
	octave 4
	note A_, 1
	note A_, 1
	octave 3
	note A_, 1
	rest 1
	octave 4
	note C_, 1
	rest 3
	note A_, 1
	note A_, 1
	octave 3
	note A_, 1
	rest 1
	octave 4
	note C_, 1
	rest 3
	note A_, 1
	note A_, 1
	octave 3
	note A_, 1
	rest 1
	octave 4
	note C_, 1
	rest 3
	note G_, 1
	rest 3
	note D_, 1
	rest 3
	note A_, 1
	note A_, 1
	octave 3
	note A_, 1
	rest 1
	octave 4
	note C_, 1
	rest 3
	note A_, 1
	note A_, 1
	octave 3
	note A_, 1
	rest 1
	octave 4
	note C_, 1
	rest 3
	note A_, 1
	rest 3
	note G_, 1
	rest 3
	note D_, 1
	rest 3
	note G_, 1
	rest 3
	note A_, 1
	note A_, 1
	octave 3
	note A_, 1
	rest 1
	octave 4
	note C_, 1
	rest 3
	note A_, 1
	note A_, 1
	octave 3
	note A_, 1
	rest 1
	octave 4
	note D_, 1
	rest 3
	note A_, 1
	rest 1
	octave 3
	note A_, 1
	rest 1
	octave 4
	note C_, 1
	rest 3
	note A_, 1
	note A_, 1
	octave 3
	note A_, 1
	rest 1
	octave 4
	note C_, 1
	rest 3
	note D_, 1
	rest 3
	octave 3
	note A_, 1
	rest 3
	note G_, 1
	rest 3
	note A_, 1
	rest 3
	octave 4
	note D_, 1
	note E_, 1
	rest 1
	note D_, 1
	note E_, 1
	rest 1
	note D_, 1
	note E_, 1
	rest 2
	note D_, 1
	rest 1
	note E_, 1
	rest 1
	note G_, 1
	rest 1
	note A_, 1
	note A_, 1
	octave 3
	note A_, 1
	rest 1
	octave 4
	note C_, 1
	rest 3
	note A_, 1
	note A_, 1
	octave 3
	note A_, 1
	rest 1
	octave 4
	note C_, 1
	rest 3
	note A_, 1
	note A_, 1
	octave 3
	note A_, 1
	rest 1
	octave 4
	note C_, 1
	rest 3
	note G_, 1
	note G_, 1
	note D_, 1
	rest 1
	note G_, 1
	rest 3
	note A_, 1
	note A_, 1
	octave 3
	note A_, 1
	rest 1
	octave 4
	note C_, 1
	rest 3
	note A_, 1
	note A_, 1
	octave 3
	note A_, 1
	rest 1
	octave 4
	note C_, 1
	rest 3
	note G_, 1
	rest 3
	note E_, 1
	rest 3
	note G_, 1
	rest 1
	note E_, 1
	rest 1
	note G_, 1
	rest 1
	note A_, 1
	rest 1
	repeat_loop 0 ;------

Music_Battle4_Ch3:
	sound_init 7, \ ; speed
	           $1, $84, $80 ; unknown
	stereo_panning $4
	speed 7
	mark_loop ;------
	transpose 0
	octave 0
	note A_, 2
	octave 1
	note A_, 1
	note A_, 1
	octave 0
	note A_, 2
	octave 1
	note A_, 1
	note A_, 1
	octave 0
	note A_, 2
	octave 1
	note A_, 2
	octave 0
	note A_, 2
	octave 1
	note A_, 2
	octave 0
	note F_, 2
	octave 1
	note F_, 1
	note F_, 1
	octave 0
	note F_, 2
	octave 1
	note F_, 2
	octave 0
	note G_, 2
	octave 1
	note G_, 2
	octave 0
	note G_, 2
	octave 1
	note G_, 1
	rest 1
	octave 0
	note A_, 2
	octave 1
	note A_, 1
	note A_, 1
	octave 0
	note A_, 2
	octave 1
	note A_, 2
	octave 0
	note A_, 2
	octave 1
	note A_, 2
	octave 0
	note A_, 2
	octave 1
	note A_, 2
	octave 0
	note F_, 2
	octave 1
	note F_, 1
	note F_, 1
	octave 0
	note F_, 2
	octave 1
	note F_, 2
	octave 0
	note G_, 2
	octave 1
	note G_, 2
	octave 0
	note G_, 2
	octave 1
	note G_, 2
	note D_, 2
	octave 2
	note D_, 1
	note D_, 1
	octave 1
	note D_, 2
	octave 2
	note D_, 1
	rest 1
	octave 1
	note D_, 2
	octave 2
	note D_, 1
	rest 1
	octave 1
	note D_, 2
	octave 2
	note D_, 1
	rest 1
	octave 0
	note A_, 2
	octave 1
	note A_, 1
	note A_, 1
	octave 0
	note A_, 2
	octave 1
	note A_, 2
	octave 0
	note A_, 2
	octave 1
	note A_, 1
	rest 1
	octave 0
	note A_, 2
	octave 1
	note A_, 1
	rest 1
	octave 0
	note F_, 2
	octave 1
	note F_, 1
	note F_, 1
	octave 0
	note F_, 2
	octave 1
	note F_, 1
	rest 1
	octave 0
	note F_, 2
	octave 1
	note F_, 1
	rest 1
	octave 0
	note F_, 2
	octave 1
	note F_, 2
	note E_, 2
	octave 2
	note E_, 1
	note E_, 1
	octave 1
	note D_, 2
	octave 2
	note D_, 1
	note D_, 1
	octave 1
	note C_, 2
	octave 2
	note C_, 1
	note C_, 1
	octave 0
	note B_, 2
	octave 1
	note B_, 2
	octave 0
	note A_, 2
	octave 1
	note A_, 1
	note A_, 1
	octave 0
	note A_, 2
	octave 1
	note A_, 1
	note A_, 1
	octave 0
	note A_, 2
	octave 1
	note A_, 2
	octave 0
	note A_, 2
	octave 1
	note A_, 2
	note F_, 2
	octave 2
	note F_, 1
	note F_, 1
	octave 1
	note F_, 2
	octave 2
	note F_, 2
	octave 1
	note G_, 2
	octave 2
	note G_, 2
	octave 1
	note G_, 2
	octave 2
	note G_, 2
	octave 0
	note A_, 2
	octave 1
	note A_, 1
	note A_, 1
	octave 0
	note A_, 2
	octave 1
	note A_, 2
	octave 0
	note A_, 2
	octave 1
	note A_, 2
	octave 0
	note G_, 2
	octave 1
	note G_, 2
	octave 0
	note A_, 2
	octave 1
	note A_, 1
	note A_, 1
	octave 0
	note A_, 2
	octave 1
	note A_, 2
	octave 0
	note A_, 2
	octave 1
	note A_, 1
	note A_, 1
	octave 0
	note A_, 2
	octave 1
	note A_, 1
	note A_, 1
	repeat_loop 0 ;------

Music_Battle4_Ch4:
	sound_init 7 ; speed
	stereo_panning STEREO_LEFT
	speed 7
	mark_loop ;------
	note D#, 1
	rest 1
	note C#, 1
	note C#, 1
	note F_, 1
	rest 1
	note C#, 1
	note C#, 1
	note D#, 1
	rest 1
	note C#, 1
	note C#, 1
	note F_, 1
	rest 1
	note C#, 1
	note C#, 1
	note D#, 1
	rest 1
	note C#, 1
	rest 1
	note F_, 1
	rest 1
	note C#, 1
	rest 1
	note D#, 1
	rest 1
	note C#, 1
	rest 1
	note F_, 1
	rest 1
	note C#, 1
	rest 1
	note D#, 1
	rest 1
	note C#, 1
	rest 1
	note F_, 1
	rest 1
	note C#, 1
	rest 1
	note D#, 1
	note C#, 1
	note C#, 1
	note C#, 1
	note F_, 1
	rest 1
	note C#, 1
	note C#, 1
	repeat_loop 0 ;------
