
Music_Stargazing_Ch1:
	sound_init 8, \ ; speed
	           DUTY_50, DUTY_50, \ ; duty cycle
	           $61, \ ; unknown 1
	           5, 2, \ ; vibrato
	           $8b, $26, $b5 ; unknown 2
	speed 7
	unknown_volume $5
	duty_cycle DUTY_50, DUTY_50
	transpose -10
	stereo_panning STEREO_LEFT
	unknown_music_e9 $98
	mark_loop ;------
	octave 3
	note B_, 2
	octave 4
	note D_, 1
	octave 3
	note F#, 3
	note A_, 2
	note G#, 2
	note B_, 2
	note E_, 2
	note G#, 2
	note B_, 2
	octave 4
	note D_, 1
	octave 3
	note F#, 3
	note B_, 2
	note A_, 1
	rest 1
	note B_, 1
	rest 1
	octave 4
	note C#, 2
	octave 3
	note A_, 1
	rest 1
	note B_, 2
	octave 4
	note D_, 1
	octave 3
	note F#, 3
	note B_, 2
	note G#, 2
	note B_, 2
	note G#, 2
	note E_, 2
	note F#, 1
	rest 1
	note F#, 1
	rest 1
	note E_, 2
	note F_, 1
	note F#, 2
	rest 3
	note A_, 2
	note F#, 2
	note B_, 2
	octave 4
	note D_, 1
	octave 3
	note F#, 3
	note A_, 2
	note G#, 2
	note B_, 2
	note E_, 2
	note G#, 2
	note B_, 2
	octave 4
	note D_, 1
	octave 3
	note F#, 3
	note B_, 2
	note G#, 1
	rest 1
	note B_, 1
	rest 1
	octave 4
	note D_, 4
	octave 3
	note B_, 2
	octave 4
	note D_, 1
	octave 3
	note F#, 3
	note B_, 2
	note G#, 2
	note B_, 2
	note E_, 2
	note G#, 1
	rest 1
	note B_, 1
	octave 4
	note C#, 1
	note D_, 1
	rest 3
	note C#, 1
	note D_, 1
	note E_, 1
	rest 3
	note D_, 1
	note C#, 1
	octave 3
	note B_, 1
	note A_, 1
	note B_, 1
	rest 1
	octave 4
	note D_, 1
	rest 1
	note C#, 1
	rest 1
	octave 3
	note A_, 1
	note B_, 1
	rest 2
	octave 4
	note D_, 1
	rest 1
	note C#, 1
	rest 1
	octave 3
	note A_, 1
	rest 1
	octave 4
	note C#, 1
	rest 1
	note E_, 1
	rest 1
	note D_, 1
	rest 1
	octave 3
	note B_, 1
	octave 4
	note C#, 1
	rest 2
	note E_, 1
	rest 1
	note D_, 1
	rest 1
	octave 3
	note B_, 1
	rest 1
	octave 4
	note D_, 1
	rest 1
	note F#, 1
	rest 1
	note E_, 1
	rest 1
	note D_, 1
	note E_, 1
	rest 2
	note G_, 1
	rest 1
	note F#, 1
	rest 1
	note E_, 1
	rest 1
	note F#, 1
	rest 1
	note E_, 1
	rest 1
	note D_, 1
	rest 1
	note C#, 1
	rest 1
	note D_, 1
	rest 1
	note C#, 1
	octave 3
	note B_, 1
	rest 2
	note A_, 1
	rest 1
	repeat_loop 0 ;------

Music_Stargazing_Ch2:
	sound_init 8, \ ; speed
	           DUTY_50, DUTY_50, \ ; duty cycle
	           $61, \ ; unknown 1
	           5, 2, \ ; vibrato
	           $8b, $26, $b5 ; unknown 2
	speed 7
	stereo_panning $4
	transpose -10
	unknown_music_e9 $81
	duty_cycle DUTY_25, DUTY_50
	mark_loop ;------
	octave 4
	note D_, 2
	note F#, 1
	octave 3
	note B_, 3
	octave 4
	note D_, 1
	rest 5
	note C#, 1
	rest 3
	note D_, 2
	note F#, 1
	octave 3
	note B_, 3
	octave 4
	note D_, 1
	rest 3
	note C#, 1
	rest 5
	note D_, 2
	note F#, 1
	octave 3
	note B_, 3
	octave 4
	note D_, 2
	note C#, 1
	rest 7
	rest 4
	octave 3
	note B_, 1
	rest 11
	octave 4
	note D_, 2
	note F#, 1
	octave 3
	note B_, 3
	octave 4
	note D_, 2
	note E_, 1
	rest 7
	note D_, 2
	note F#, 1
	octave 3
	note B_, 3
	octave 4
	note D_, 2
	note E_, 1
	rest 3
	note E_, 3
	rest 1
	note D_, 2
	note F#, 1
	octave 3
	note B_, 3
	octave 4
	note D_, 2
	note E_, 1
	rest 7
	note D_, 1
	rest 11
	note D_, 2
	rest 2
	note D_, 1
	rest 1
	note F#, 2
	note E_, 2
	note D_, 1
	note D_, 2
	rest 1
	note F#, 2
	note E_, 2
	note D_, 1
	rest 1
	note F#, 1
	rest 1
	note B_, 1
	rest 1
	note A_, 1
	rest 1
	note F#, 1
	note B_, 1
	rest 4
	note B_, 1
	rest 3
	note D_, 1
	rest 1
	note B_, 1
	rest 1
	note A_, 1
	rest 1
	note F#, 1
	octave 3
	note B_, 1
	rest 2
	octave 4
	note E_, 1
	rest 1
	note D_, 1
	rest 1
	note C#, 1
	rest 1
	octave 3
	note B_, 1
	note A_, 1
	rest 2
	note B_, 1
	note A_, 1
	rest 2
	note F#, 1
	note A_, 1
	rest 2
	note F#, 1
	note A_, 1
	rest 2
	repeat_loop 0 ;------

Music_Stargazing_Ch3:
	sound_init 8, \ ; speed
	           $6, $84, $80 ; unknown
	stereo_panning $4
	speed 7
	transpose 2
	mark_loop ;------
	octave 1
	note B_, 3
	note B_, 2
	rest 1
	note B_, 2
	note E_, 2
	rest 1
	note E_, 3
	note E_, 2
	note B_, 3
	note B_, 2
	rest 1
	note B_, 2
	note B_, 2
	rest 2
	note A_, 4
	note B_, 3
	note B_, 3
	note B_, 2
	note E_, 2
	rest 1
	note E_, 2
	rest 1
	note E_, 2
	note B_, 2
	note B_, 2
	rest 2
	note B_, 2
	rest 4
	note B_, 2
	note A_, 2
	note B_, 2
	rest 1
	note B_, 2
	rest 1
	note B_, 2
	note E_, 2
	rest 1
	note E_, 2
	rest 1
	note E_, 2
	note B_, 3
	note B_, 2
	rest 1
	note B_, 2
	note E_, 3
	note F#, 3
	note B_, 2
	note B_, 3
	note B_, 3
	note B_, 2
	note E_, 2
	rest 1
	note E_, 3
	note E_, 2
	note B_, 2
	rest 1
	note B_, 3
	note B_, 2
	rest 4
	note A_, 1
	note A_, 1
	note A_, 2
	note G_, 2
	note G_, 1
	rest 1
	octave 2
	note D_, 2
	octave 1
	note G_, 2
	note A_, 2
	note A_, 2
	octave 2
	note E_, 2
	octave 1
	note A_, 2
	note B_, 2
	note B_, 2
	octave 2
	note D_, 2
	octave 1
	note B_, 1
	rest 1
	note F#, 2
	note F#, 2
	note A_, 2
	note F#, 2
	note G_, 1
	rest 1
	note G_, 2
	octave 2
	note D_, 2
	octave 1
	note G_, 2
	note A_, 2
	note A_, 2
	octave 2
	note E_, 2
	octave 1
	note A_, 2
	note B_, 2
	note B_, 2
	note A_, 2
	note A_, 1
	rest 1
	note G_, 1
	rest 1
	note G_, 1
	rest 1
	note F#, 1
	rest 1
	note F#, 2
	repeat_loop 0 ;------

Music_Stargazing_Ch4:
	sound_init 8 ; speed
	stereo_panning STEREO_LEFT
	speed 7
	mark_loop ;------
	rest 4
	note D#, 4
	repeat_loop 0 ;------
	note C_, 0
	note C_, 0
	note C_, 0
	note C_, 0
	note C_, 0
	note C_, 0
	note C_, 0
	note C_, 0
	note C_, 0
	note C_, 0
	note C_, 0
	note C_, 0
