Music_Town1_Ch1:
	sound_init 9, \ ; speed
	           DUTY_50, DUTY_50, \ ; duty cycle
	           $c1, \ ; unknown 1
	           5, 2, \ ; vibrato
	           $8b, $26, $b5 ; unknown 2
	fine_pitch $2
	duty_cycle DUTY_50, DUTY_50
	speed 9
	unknown_music_e9 $91
	stereo_panning $4
	mark_loop ;------
	transpose -10
	octave 3
	note G_, 6
	note A#, 2
	note G#, 6
	octave 4
	note C_, 2
	octave 3
	note A#, 4
	octave 4
	note D_, 2
	note D#, 2
	octave 3
	note D#, 4
	note F_, 2
	note G_, 2
	note C_, 4
	note G#, 6
	note G_, 2
	note F_, 2
	note D#, 2
	note D#, 4
	note D_, 4
	note C_, 4
	note D_, 2
	note D#, 2
	note G_, 6
	note A#, 2
	note G#, 6
	octave 4
	note C_, 2
	octave 3
	note A#, 4
	octave 4
	note D_, 2
	note D#, 2
	note D#, 4
	octave 3
	note D#, 4
	note G#, 6
	note G_, 2
	note F_, 4
	note D#, 2
	note D_, 2
	note F_, 6
	note D#, 2
	note D#, 8
	transpose 2
	octave 4
	note C_, 6
	note C_, 2
	note C_, 2
	note D_, 2
	note D#, 2
	note F_, 2
	note D_, 4
	octave 3
	note A#, 4
	note A#, 6
	note G_, 2
	note G#, 6
	note G#, 2
	note G#, 2
	note A#, 2
	octave 4
	note C_, 2
	note D#, 2
	octave 3
	note A#, 4
	note G#, 4
	note G_, 6
	note D#, 2
	transpose -10
	octave 4
	note C_, 6
	note C_, 2
	note C_, 2
	note D_, 2
	note D#, 2
	note F_, 2
	note D_, 4
	note F_, 2
	note D_, 2
	note D#, 4
	octave 3
	note G_, 4
	note G#, 6
	note A#, 2
	octave 4
	note C_, 2
	octave 3
	note A#, 2
	note G#, 2
	octave 4
	note C_, 2
	octave 3
	note F_, 6
	note D#, 2
	note D_, 4
	note F_, 4
	repeat_loop 0 ;------

Music_Town1_Ch2:
	sound_init 9, \ ; speed
	           DUTY_50, DUTY_50, \ ; duty cycle
	           $c1, \ ; unknown 1
	           5, 2, \ ; vibrato
	           $8b, $26, $b5 ; unknown 2
	fine_pitch $2
	duty_cycle DUTY_25, DUTY_50
	speed 9
	transpose -10
	unknown_music_e9 $21
	stereo_panning STEREO_LEFT
	mark_loop ;------
	octave 4
	note G_, 1
	note D#, 1
	note G_, 1
	note D#, 1
	octave 3
	note G_, 1
	note D#, 1
	note G_, 1
	note D#, 1
	note G#, 1
	note D#, 1
	note G#, 1
	note D#, 1
	note G#, 1
	note D#, 1
	note G#, 1
	note D#, 1
	note A#, 1
	note D_, 1
	note A#, 1
	note D_, 1
	note A#, 1
	note D_, 1
	note A#, 1
	note D_, 1
	octave 4
	note C_, 1
	octave 3
	note D#, 1
	octave 4
	note C_, 1
	octave 3
	note D#, 1
	octave 4
	note C_, 1
	octave 3
	note D#, 1
	octave 4
	note C_, 1
	octave 3
	note D#, 1
	note G#, 1
	note D#, 1
	note G#, 1
	note D#, 1
	note G#, 1
	note D#, 1
	note G#, 1
	note D#, 1
	note G#, 1
	note D#, 1
	note G#, 1
	note D#, 1
	note G#, 1
	note D#, 1
	note G#, 1
	note D#, 1
	note A#, 1
	note F_, 1
	note A#, 1
	note F_, 1
	note A#, 1
	note F_, 1
	note A#, 1
	note F_, 1
	note A#, 1
	note F_, 1
	note A#, 1
	note F_, 1
	note A#, 1
	note F_, 1
	note A#, 1
	note F_, 1
	octave 4
	note D#, 1
	octave 3
	note A#, 1
	octave 4
	note D#, 1
	octave 3
	note A#, 1
	octave 4
	note D#, 1
	octave 3
	note A#, 1
	octave 4
	note D#, 1
	octave 3
	note A#, 1
	octave 4
	note D#, 1
	note C_, 1
	note D#, 1
	note C_, 1
	note D#, 1
	note C_, 1
	note D#, 1
	octave 3
	note A#, 1
	octave 4
	note D#, 1
	octave 3
	note A#, 1
	octave 4
	note D#, 1
	octave 3
	note A#, 1
	octave 4
	note D#, 1
	octave 3
	note A#, 1
	octave 4
	note D#, 1
	octave 3
	note A#, 1
	octave 4
	note D#, 1
	note C_, 1
	note D#, 1
	note C_, 1
	note D#, 1
	note C_, 1
	note D#, 1
	note C_, 1
	note D#, 1
	octave 3
	note G#, 1
	octave 4
	note D#, 1
	octave 3
	note G#, 1
	octave 4
	note D#, 1
	octave 3
	note G#, 1
	octave 4
	note D#, 1
	octave 3
	note G#, 1
	octave 4
	note D#, 1
	octave 3
	note A#, 1
	octave 4
	note D#, 1
	octave 3
	note A#, 1
	octave 4
	note D#, 1
	octave 3
	note A#, 1
	octave 4
	note D#, 1
	octave 3
	note A#, 1
	octave 4
	note C_, 1
	octave 3
	note G#, 1
	octave 4
	note C_, 1
	octave 3
	note G#, 1
	octave 4
	note C_, 1
	octave 3
	note G#, 1
	octave 4
	note C_, 1
	octave 3
	note G#, 1
	note A#, 1
	note G_, 1
	note A#, 1
	note G_, 1
	note A#, 1
	note G_, 1
	note A#, 1
	note G_, 1
	octave 4
	note C_, 1
	octave 3
	note D#, 1
	note G#, 1
	octave 4
	note C_, 1
	rest 1
	octave 3
	note D#, 1
	note G#, 1
	octave 4
	note C_, 1
	rest 1
	octave 3
	note D#, 1
	note G#, 1
	octave 4
	note C_, 1
	rest 1
	octave 3
	note D#, 1
	note G#, 1
	octave 4
	note C_, 1
	note D_, 1
	octave 3
	note F_, 1
	note A#, 1
	octave 4
	note D_, 1
	rest 1
	octave 3
	note F_, 1
	note A#, 1
	octave 4
	note D_, 1
	rest 1
	octave 3
	note F_, 1
	note A#, 1
	octave 4
	note D_, 1
	rest 1
	octave 3
	note F_, 1
	note A#, 1
	octave 4
	note D_, 1
	note C_, 1
	octave 3
	note D#, 1
	note G#, 1
	octave 4
	note C_, 1
	rest 1
	octave 3
	note D#, 1
	note G#, 1
	octave 4
	note C_, 2
	octave 3
	note D#, 1
	note G#, 1
	octave 4
	note C_, 2
	octave 3
	note D#, 1
	note G#, 1
	octave 4
	note C_, 1
	octave 3
	note A#, 1
	note D_, 1
	note A#, 1
	note D_, 1
	note A#, 1
	note D_, 1
	note A#, 1
	note D_, 1
	note A#, 1
	note D#, 1
	note A#, 1
	note D#, 1
	note A#, 1
	note D#, 1
	note A#, 1
	note D#, 1
	octave 4
	note C_, 1
	octave 3
	note D#, 1
	note G#, 1
	octave 4
	note C_, 1
	rest 1
	octave 3
	note D#, 1
	note G#, 1
	octave 4
	note C_, 1
	rest 1
	octave 3
	note D#, 1
	note G#, 1
	octave 4
	note C_, 1
	rest 1
	octave 3
	note D#, 1
	note G#, 1
	octave 4
	note C_, 1
	octave 3
	note A#, 1
	note D_, 1
	note G_, 1
	note A#, 1
	rest 1
	note D_, 1
	note G_, 1
	note A#, 1
	octave 4
	note C_, 1
	octave 3
	note D#, 1
	note G_, 1
	octave 4
	note C_, 1
	rest 1
	octave 3
	note D#, 1
	note G_, 1
	octave 4
	note C_, 1
	note C_, 1
	octave 3
	note D#, 1
	note G#, 1
	octave 4
	note C_, 1
	rest 1
	octave 3
	note D#, 1
	note G#, 1
	octave 4
	note C_, 1
	rest 1
	octave 3
	note D#, 1
	note G#, 1
	octave 4
	note C_, 1
	rest 1
	note D#, 1
	note C_, 1
	octave 3
	note G#, 1
	octave 4
	note C_, 1
	octave 3
	note G#, 1
	note D#, 1
	note G#, 1
	note D#, 1
	note C_, 1
	note D#, 1
	note C_, 1
	octave 2
	note A#, 1
	octave 3
	note C_, 1
	note D_, 1
	note D#, 1
	note F_, 1
	note G_, 1
	note G#, 1
	note A#, 1
	repeat_loop 0 ;------

Music_Town1_Ch3:
	sound_init 9, \ ; speed
	           $8, $84, $80 ; unknown
	stereo_panning STEREO_LEFT
	speed 9
	mark_loop ;------
	transpose 2
	octave 1
	note D#, 5
	rest 1
	note D#, 8
	note D#, 1
	rest 1
	note D#, 5
	rest 1
	note D#, 7
	rest 1
	note D#, 2
	note G#, 4
	rest 2
	note G#, 10
	note A#, 5
	rest 1
	note A#, 6
	note A#, 4
	note D#, 3
	rest 1
	note D#, 4
	note D#, 4
	note D#, 4
	note G_, 4
	note G_, 4
	octave 2
	note C_, 4
	note C_, 4
	octave 1
	note G#, 4
	note G#, 4
	note A#, 4
	note A#, 3
	rest 1
	note G#, 3
	rest 1
	note G#, 4
	note D#, 4
	note D#, 4
	note G#, 2
	note G#, 2
	note G#, 2
	note G#, 2
	note G#, 2
	note G#, 2
	note G#, 2
	note G#, 2
	note A#, 2
	note A#, 2
	note A#, 2
	note A#, 2
	note A#, 2
	note A#, 2
	note A#, 2
	note A#, 2
	note G#, 2
	note G#, 2
	note G#, 2
	note G#, 2
	note G#, 2
	note G#, 2
	note G#, 2
	note G#, 2
	note A#, 2
	note A#, 2
	note A#, 2
	note A#, 2
	note D#, 2
	note D#, 2
	note F_, 2
	note G_, 2
	note G#, 2
	note G#, 2
	note G#, 2
	note G#, 2
	note G#, 2
	note G#, 2
	note G#, 2
	note G#, 2
	note G_, 2
	note G_, 2
	note G_, 2
	note G_, 2
	octave 2
	note C_, 2
	note C_, 2
	octave 1
	note A#, 2
	note A#, 2
	note G#, 2
	note G#, 2
	note G#, 2
	note G#, 2
	note G#, 2
	note G#, 2
	note G#, 2
	octave 2
	note C_, 2
	octave 1
	note F_, 2
	note F_, 2
	note F_, 2
	note D#, 2
	note F_, 4
	note A#, 4
	note D#, 5
	rest 11
	repeat_loop 0 ;------

Music_Town1_Ch4:
	sound_init 9 ; speed
	speed 9
	mark_loop ;------
	rest 4
	note C#, 4
	rest 4
	note D_, 4
	repeat_loop 0 ;------
