
Music_Town3_Ch1:
	sound_init 7, \ ; speed
	           DUTY_25, DUTY_12, \ ; duty cycle
	           $61, \ ; unknown 1
	           0, 0, \ ; vibrato
	           $86, $12, $85 ; unknown 2
	speed 7
	stereo_panning $4
	fine_pitch $2
	transpose -12
	mark_loop ;------
	unknown_music_e9 $81
	duty_cycle DUTY_50, DUTY_50
	octave 4
	note E_, 1
	rest 3
	note E_, 1
	rest 3
	note C#, 1
	rest 3
	note C#, 1
	rest 3
	octave 3
	note B_, 1
	rest 3
	note B_, 1
	note F#, 1
	note B_, 1
	note F#, 1
	octave 4
	note C#, 1
	rest 1
	octave 3
	note G#, 1
	rest 1
	note B_, 1
	rest 1
	octave 4
	note C#, 1
	rest 1
	note E_, 1
	rest 3
	note E_, 1
	rest 3
	note C#, 1
	rest 3
	note C#, 1
	rest 3
	octave 3
	note B_, 1
	note F#, 1
	note B_, 1
	note F#, 1
	note B_, 1
	note F#, 1
	note B_, 1
	note F#, 1
	octave 4
	note C#, 1
	rest 1
	octave 3
	note B_, 1
	rest 1
	octave 4
	note C#, 1
	rest 1
	octave 3
	note B_, 1
	rest 1
	octave 4
	note E_, 1
	rest 3
	note E_, 1
	rest 3
	note C#, 1
	rest 3
	note C#, 1
	rest 3
	octave 3
	note B_, 1
	rest 3
	note B_, 1
	rest 3
	octave 4
	note C#, 1
	rest 1
	octave 3
	note G#, 1
	rest 1
	note B_, 1
	rest 1
	octave 4
	note C#, 1
	rest 1
	note E_, 1
	rest 3
	note E_, 1
	rest 3
	note D#, 1
	rest 3
	note D#, 1
	rest 3
	octave 3
	note B_, 1
	rest 3
	note B_, 1
	rest 3
	note B_, 1
	rest 1
	note F#, 1
	rest 1
	octave 4
	note C#, 1
	rest 1
	octave 3
	note B_, 1
	rest 1
	octave 4
	note E_, 1
	octave 3
	note B_, 1
	octave 4
	note E_, 1
	octave 3
	note B_, 1
	octave 4
	note E_, 1
	rest 1
	octave 3
	note B_, 1
	rest 1
	octave 4
	note C#, 1
	rest 3
	note C#, 1
	octave 3
	note G#, 1
	octave 4
	note C#, 1
	octave 3
	note G#, 1
	note B_, 1
	rest 3
	note B_, 1
	note F#, 1
	note B_, 1
	note F#, 1
	octave 4
	note C#, 1
	rest 1
	octave 3
	note B_, 1
	rest 1
	note G#, 1
	rest 1
	note B_, 1
	rest 1
	octave 4
	note E_, 1
	octave 3
	note B_, 1
	octave 4
	note E_, 1
	octave 3
	note B_, 1
	octave 4
	note C#, 1
	rest 3
	note C#, 1
	octave 3
	note B_, 1
	octave 4
	note C#, 1
	octave 3
	note B_, 1
	octave 4
	note C#, 1
	rest 3
	octave 3
	note B_, 1
	note F#, 1
	note B_, 1
	note F#, 1
	note B_, 1
	rest 3
	note B_, 1
	rest 3
	note F#, 1
	rest 3
	octave 4
	note E_, 1
	octave 3
	note B_, 1
	octave 4
	note E_, 1
	octave 3
	note B_, 1
	octave 4
	note C#, 1
	rest 3
	note C#, 1
	octave 3
	note B_, 1
	octave 4
	note C#, 1
	octave 3
	note B_, 1
	octave 4
	note C#, 1
	rest 3
	octave 3
	note B_, 1
	note F#, 1
	note B_, 1
	note F#, 1
	note B_, 1
	rest 3
	octave 4
	note C#, 1
	octave 3
	note B_, 1
	octave 4
	note C#, 1
	octave 3
	note B_, 1
	note G#, 1
	rest 1
	note B_, 1
	rest 1
	octave 4
	note C#, 1
	rest 3
	note C#, 1
	note C#, 1
	note C#, 1
	note C#, 1
	note C#, 1
	rest 1
	note D#, 1
	rest 1
	note E_, 1
	rest 1
	note G#, 1
	rest 1
	note F#, 1
	note E_, 1
	note D#, 1
	rest 1
	note C#, 1
	rest 1
	octave 3
	note B_, 1
	rest 1
	octave 4
	note C#, 1
	rest 1
	octave 3
	note B_, 1
	rest 1
	note F#, 1
	rest 1
	note B_, 1
	rest 1
	repeat_loop 0 ;------

Music_Town3_Ch2:
	sound_init 7, \ ; speed
	           DUTY_50, DUTY_50, \ ; duty cycle
	           $61, \ ; unknown 1
	           5, 2, \ ; vibrato
	           $8b, $26, $b5 ; unknown 2
	speed 7
	stereo_panning $4
	fine_pitch $2
	mark_loop ;------
	unknown_music_e9 $81
	transpose 0
	duty_cycle DUTY_12, DUTY_12
	octave 2
	note B_, 2
	rest 2
	note B_, 1
	note B_, 1
	note B_, 1
	note B_, 1
	octave 3
	note C#, 2
	rest 2
	note C#, 2
	note E_, 2
	note D#, 2
	rest 2
	note D#, 2
	octave 2
	note B_, 2
	octave 3
	note C#, 6
	rest 2
	octave 2
	note B_, 2
	rest 2
	note B_, 1
	note B_, 1
	note B_, 1
	note B_, 1
	octave 3
	note C#, 2
	rest 2
	note C#, 2
	note E_, 2
	note D#, 1
	rest 3
	note D#, 2
	note E_, 2
	note F#, 7
	rest 1
	octave 2
	note B_, 2
	rest 2
	note B_, 1
	note B_, 1
	note B_, 1
	note B_, 1
	octave 3
	note C#, 3
	rest 1
	note C#, 2
	note E_, 2
	note D#, 3
	rest 1
	note D#, 2
	octave 2
	note B_, 2
	octave 3
	note C#, 3
	rest 1
	note C#, 2
	note D#, 2
	note E_, 3
	rest 1
	note E_, 1
	note E_, 1
	note E_, 1
	note G#, 1
	note F#, 3
	rest 1
	note F#, 2
	note E_, 2
	note D#, 3
	rest 1
	note D#, 2
	note E_, 2
	note F#, 6
	note G#, 1
	note A_, 1
	note B_, 2
	rest 2
	note B_, 1
	note B_, 1
	note B_, 1
	note B_, 1
	octave 4
	note C#, 3
	rest 1
	note C#, 2
	note E_, 2
	note D#, 3
	note E_, 1
	note D#, 2
	octave 3
	note B_, 2
	octave 4
	note C#, 4
	octave 3
	note G#, 4
	note B_, 3
	rest 1
	note B_, 1
	note B_, 1
	note B_, 1
	note B_, 1
	octave 4
	note C#, 3
	rest 1
	note C#, 4
	octave 3
	note B_, 4
	note A_, 2
	note G#, 2
	note F#, 6
	note B_, 2
	note B_, 3
	rest 1
	note B_, 1
	note B_, 1
	note B_, 1
	note B_, 1
	octave 4
	note C#, 4
	note C#, 2
	note E_, 1
	rest 1
	note D#, 3
	note E_, 1
	note D#, 2
	octave 3
	note B_, 2
	octave 4
	note C#, 3
	rest 1
	note C#, 2
	note D#, 2
	note E_, 3
	note C#, 1
	octave 3
	note A_, 2
	note G#, 2
	note F#, 2
	note G#, 2
	note F#, 2
	note E_, 2
	note D#, 3
	note E_, 1
	note D#, 2
	note C#, 2
	octave 2
	note B_, 4
	octave 3
	note F#, 3
	rest 1
	repeat_loop 0 ;------

Music_Town3_Ch3:
	sound_init 7, \ ; speed
	           $1, $84, $80 ; unknown
	stereo_panning $4
	speed 7
	mark_loop ;------
	transpose 12
	octave 1
	note E_, 2
	rest 2
	note E_, 2
	note E_, 1
	note E_, 1
	note C#, 1
	rest 3
	note C#, 2
	rest 2
	octave 0
	note B_, 2
	rest 2
	note B_, 1
	note B_, 1
	note B_, 1
	rest 1
	octave 1
	note C#, 2
	rest 2
	note C#, 2
	note E_, 2
	note E_, 2
	rest 2
	note E_, 1
	note E_, 1
	note E_, 2
	note C#, 2
	rest 2
	note C#, 2
	rest 2
	octave 0
	note B_, 2
	rest 2
	note B_, 1
	note B_, 1
	note B_, 1
	rest 1
	octave 1
	note C#, 3
	rest 1
	octave 0
	note B_, 3
	rest 1
	octave 1
	note E_, 2
	rest 2
	note E_, 1
	note E_, 1
	note E_, 2
	note C#, 2
	rest 2
	note C#, 2
	note C#, 2
	octave 0
	note B_, 2
	rest 2
	note B_, 1
	rest 1
	note B_, 2
	octave 1
	note C#, 2
	rest 2
	octave 0
	note B_, 4
	note A_, 2
	rest 2
	note A_, 1
	note A_, 1
	note A_, 2
	note B_, 2
	rest 2
	note B_, 2
	rest 2
	note B_, 2
	rest 2
	note A_, 1
	note B_, 1
	note B_, 1
	rest 1
	note B_, 2
	note B_, 2
	note B_, 3
	rest 1
	octave 1
	note E_, 3
	rest 1
	note E_, 1
	note E_, 1
	note E_, 2
	note C#, 3
	rest 1
	note C#, 2
	note C#, 2
	octave 0
	note B_, 3
	rest 1
	note B_, 2
	note B_, 2
	octave 1
	note C#, 2
	rest 2
	note C#, 2
	octave 0
	note B_, 2
	octave 1
	note E_, 2
	rest 2
	note E_, 1
	note E_, 1
	note E_, 2
	note C#, 2
	rest 2
	note C#, 2
	note C#, 2
	octave 0
	note B_, 3
	rest 1
	note B_, 2
	rest 2
	note B_, 2
	rest 2
	note B_, 1
	note B_, 1
	note B_, 2
	octave 1
	note E_, 2
	rest 2
	note E_, 1
	note E_, 1
	note E_, 2
	note C#, 2
	rest 2
	note C#, 3
	rest 1
	octave 0
	note B_, 2
	rest 2
	note B_, 1
	note B_, 1
	note B_, 2
	octave 1
	note C#, 3
	rest 1
	note C#, 2
	octave 0
	note B_, 2
	note A_, 2
	rest 2
	note A_, 1
	note A_, 1
	note A_, 1
	note A_, 1
	note A_, 3
	rest 1
	note A_, 3
	rest 1
	note B_, 2
	rest 2
	note B_, 1
	note B_, 1
	note B_, 1
	note B_, 1
	note B_, 2
	note B_, 1
	rest 1
	note B_, 2
	note B_, 1
	rest 1
	repeat_loop 0 ;------

Music_Town3_Ch4:
	sound_init 7 ; speed
	stereo_panning STEREO_LEFT
	speed 7
	mark_loop ;------
	note C#, 1
	note D#, 1
	note D#, 1
	note C#, 1
	note G#, 1
	note C#, 1
	note D#, 1
	note C#, 1
	note D#, 1
	note C#, 1
	note D#, 1
	note C#, 1
	note G#, 1
	note C#, 1
	note D#, 1
	note C#, 1
	note D#, 1
	note C#, 1
	note D#, 1
	note C#, 1
	note G#, 1
	note C#, 1
	note D#, 1
	note C#, 1
	note D#, 1
	note C#, 1
	note D#, 1
	note C#, 1
	note G#, 1
	note C#, 1
	note D#, 1
	note C#, 1
	note D#, 1
	note C#, 1
	note D#, 1
	note C#, 1
	note G#, 1
	note C#, 1
	note D#, 1
	note C#, 1
	note D#, 1
	note C#, 1
	note D#, 1
	note C#, 1
	note G#, 1
	note C#, 1
	note D#, 1
	note C#, 1
	note D#, 1
	note C#, 1
	note D#, 1
	note C#, 1
	note G#, 1
	note C#, 1
	note D#, 1
	note C#, 1
	note D#, 1
	note C#, 1
	note D#, 1
	note C#, 1
	note G#, 1
	note C#, 1
	note G#, 1
	note C#, 1
	repeat_loop 0 ;------
