Music_Town2_Ch1:
	sound_init 8, \ ; speed
	           DUTY_50, DUTY_75, \ ; duty cycle
	           $b1, \ ; unknown 1
	           2, 4, \ ; vibrato
	           $8b, $35, $c7 ; unknown 2
	speed 8
	fine_pitch $2
	unknown_music_e9 $a1
	duty_cycle DUTY_50, DUTY_50
	mark_loop ;------
	transpose -12
	stereo_panning $4
	octave 4
	note F_, 2
	note C#, 2
	octave 3
	note G#, 2
	note A#, 4
	octave 4
	note C#, 2
	note F#, 2
	note F_, 2
	note D#, 2
	note F_, 1
	note D#, 1
	note C#, 2
	note F_, 7
	rest 1
	octave 3
	note G#, 2
	note A#, 2
	octave 4
	note C#, 2
	note F#, 2
	note D#, 4
	note D#, 2
	note C#, 2
	note C_, 2
	octave 3
	note G#, 8
	octave 4
	note C#, 4
	note D#, 4
	note F_, 2
	note C#, 2
	octave 3
	note G#, 2
	note A#, 4
	octave 4
	note C#, 2
	note F#, 2
	note F_, 2
	note D#, 2
	note F_, 1
	note D#, 1
	note C#, 2
	note F_, 8
	note C#, 2
	note A#, 2
	note F#, 2
	note D#, 2
	note C#, 2
	note C#, 2
	note C_, 2
	octave 3
	note A#, 2
	octave 4
	note C_, 2
	note D#, 6
	note C#, 2
	note C#, 7
	rest 1
	octave 5
	note C#, 6
	note C#, 2
	note C#, 2
	note C_, 2
	octave 4
	note G#, 2
	note D#, 2
	note A#, 11
	rest 1
	note A#, 2
	note G#, 2
	note F#, 6
	note F#, 2
	note F#, 2
	note F_, 2
	note D#, 2
	note C#, 2
	note F_, 6
	note F#, 1
	note F_, 1
	note D#, 4
	note F_, 2
	note G#, 2
	octave 5
	note C#, 6
	note C#, 2
	note C#, 2
	note C_, 2
	octave 4
	note G#, 2
	note D#, 2
	note A#, 6
	note G#, 6
	note C#, 2
	note D#, 2
	note F_, 6
	note F_, 2
	note F#, 2
	note F_, 2
	note C#, 2
	octave 3
	note G#, 2
	octave 4
	note D#, 11
	rest 5
	repeat_loop 0 ;------

Music_Town2_Ch2:
	sound_init 8, \ ; speed
	           DUTY_50, DUTY_75, \ ; duty cycle
	           $b1, \ ; unknown 1
	           2, 4, \ ; vibrato
	           $8b, $35, $c7 ; unknown 2
	speed 8
	fine_pitch $2
	unknown_music_e9 $51
	duty_cycle DUTY_50, DUTY_50
	unknown_volume $10
	stereo_panning $2
	mark_loop ;------
	transpose -24
	octave 5
	note G#, 1
	note C#, 1
	octave 4
	note G#, 1
	note C#, 1
	note G#, 1
	note C#, 1
	note G#, 1
	note C#, 1
	note A#, 1
	note C#, 1
	note A#, 1
	note C#, 1
	note A#, 1
	note C#, 1
	note A#, 1
	note C#, 1
	octave 5
	note C_, 1
	octave 4
	note D#, 1
	octave 5
	note C_, 1
	octave 4
	note D#, 1
	octave 5
	note C_, 1
	octave 4
	note D#, 1
	octave 5
	note C_, 1
	octave 4
	note D#, 1
	octave 5
	note C#, 1
	octave 4
	note F_, 1
	octave 5
	note C#, 1
	octave 4
	note F_, 1
	octave 5
	note C#, 1
	octave 4
	note F_, 1
	octave 5
	note C#, 1
	octave 4
	note F_, 1
	octave 5
	note C#, 1
	octave 4
	note F#, 1
	octave 5
	note C#, 1
	octave 4
	note F#, 1
	octave 5
	note C#, 1
	octave 4
	note F#, 1
	octave 5
	note C#, 1
	octave 4
	note F#, 1
	octave 5
	note C_, 1
	octave 4
	note G#, 1
	octave 5
	note C_, 1
	octave 4
	note G#, 1
	octave 5
	note C_, 1
	octave 4
	note G#, 1
	octave 5
	note C_, 1
	octave 4
	note G#, 1
	octave 5
	note C#, 1
	octave 4
	note G#, 1
	octave 5
	note C#, 1
	octave 4
	note G#, 1
	octave 5
	note C#, 1
	octave 4
	note G#, 1
	octave 5
	note C#, 1
	octave 4
	note G#, 1
	octave 5
	note D#, 1
	octave 4
	note G#, 1
	octave 5
	note D#, 1
	octave 4
	note G#, 1
	octave 5
	note D#, 1
	octave 4
	note G#, 1
	octave 5
	note D#, 1
	octave 4
	note G#, 1
	octave 5
	note C#, 1
	octave 4
	note G#, 1
	octave 5
	note C#, 1
	octave 4
	note G#, 1
	octave 5
	note C#, 1
	octave 4
	note G#, 1
	octave 5
	note C#, 1
	octave 4
	note G#, 1
	note A#, 1
	note F#, 1
	note A#, 1
	note F#, 1
	note A#, 1
	note F#, 1
	note A#, 1
	note F#, 1
	octave 5
	note C_, 1
	octave 4
	note G#, 1
	octave 5
	note C_, 1
	octave 4
	note G#, 1
	octave 5
	note C_, 1
	octave 4
	note G#, 1
	octave 5
	note C_, 1
	octave 4
	note G#, 1
	octave 5
	note C#, 1
	octave 4
	note G#, 1
	octave 5
	note C#, 1
	octave 4
	note G#, 1
	octave 5
	note C#, 1
	octave 4
	note G#, 1
	octave 5
	note C#, 1
	octave 4
	note G#, 1
	note A#, 1
	note F#, 1
	note A#, 1
	note F#, 1
	note A#, 1
	note F#, 1
	note A#, 1
	note F#, 1
	note G#, 1
	note D#, 1
	note G#, 1
	note D#, 1
	note G#, 1
	note D#, 1
	note G#, 1
	note D#, 1
	note A#, 1
	note F#, 1
	note A#, 1
	note F#, 1
	note A#, 1
	note F#, 1
	note A#, 1
	note F#, 1
	note G#, 2
	note F_, 2
	note D#, 2
	note C#, 2
	note C#, 1
	octave 3
	note A#, 1
	octave 4
	note C_, 1
	note C#, 1
	note D#, 1
	note C#, 1
	note D#, 1
	note F_, 1
	note F#, 1
	note F_, 1
	note F#, 1
	note G#, 1
	note A#, 1
	note G#, 1
	note A#, 1
	octave 5
	note C_, 1
	note C#, 2
	note C_, 2
	octave 4
	note A#, 2
	note G#, 2
	note F_, 2
	note D#, 2
	note C#, 2
	note C_, 2
	note C#, 1
	note C_, 1
	note C#, 1
	note D#, 1
	note F_, 1
	note D#, 1
	note F_, 1
	note F#, 1
	note G#, 1
	note F#, 1
	note G#, 1
	note A#, 1
	octave 5
	note C_, 1
	octave 4
	note A#, 1
	octave 5
	note C_, 1
	note C#, 1
	note D#, 1
	note C#, 1
	note D#, 1
	note C#, 1
	note D#, 1
	note C#, 1
	note D#, 1
	note C#, 1
	note F_, 2
	note D#, 2
	note C#, 2
	note C_, 2
	note C#, 1
	note C_, 1
	note C#, 1
	note C_, 1
	note C#, 2
	octave 4
	note A#, 2
	octave 5
	note C_, 2
	octave 4
	note A#, 2
	octave 5
	note C_, 3
	rest 1
	octave 4
	note A#, 1
	note G#, 1
	note A#, 1
	note G#, 1
	note A#, 2
	note F_, 2
	note D#, 4
	note C#, 4
	octave 3
	note A#, 2
	octave 4
	note C_, 2
	note C#, 2
	note D#, 2
	note F_, 8
	note F_, 1
	rest 3
	note F#, 2
	note F_, 2
	note D#, 2
	note C#, 2
	note C_, 2
	octave 3
	note G#, 2
	repeat_loop 0 ;------

Music_Town2_Ch3:
	sound_init 8, \ ; speed
	           $4, $84, $80 ; unknown
	stereo_panning $4
	speed 8
	mark_loop ;------
	transpose 0
	octave 2
	note C#, 6
	octave 1
	note G#, 2
	note F#, 8
	note G#, 1
	rest 1
	note G#, 6
	octave 2
	note C#, 8
	octave 1
	note F#, 6
	note F#, 2
	note G#, 8
	octave 2
	note C#, 8
	octave 1
	note F#, 4
	note G#, 4
	octave 2
	note C#, 8
	octave 1
	note F#, 6
	note F#, 2
	note G#, 8
	octave 2
	note C#, 4
	note C_, 4
	octave 1
	note A#, 8
	note G#, 8
	note F#, 6
	note F#, 2
	octave 2
	note C#, 4
	octave 1
	note G#, 4
	note F#, 2
	octave 2
	note C#, 2
	note F#, 4
	octave 1
	note G#, 2
	octave 2
	note D#, 2
	note G#, 2
	octave 1
	note G#, 2
	note A#, 4
	octave 2
	note F_, 8
	octave 1
	note A#, 2
	note G#, 2
	note F#, 2
	octave 2
	note C#, 2
	note F#, 4
	octave 1
	note G#, 2
	octave 2
	note D#, 2
	note G#, 4
	note C#, 8
	note C_, 4
	octave 1
	note G#, 4
	note F#, 2
	octave 2
	note C#, 2
	note F#, 4
	octave 1
	note G#, 2
	octave 2
	note D#, 2
	note G#, 4
	octave 1
	note A#, 2
	octave 2
	note F_, 2
	note A#, 1
	rest 1
	note G#, 2
	note F_, 8
	octave 1
	note F#, 2
	octave 2
	note C#, 2
	note F#, 4
	octave 1
	note G#, 2
	octave 2
	note D#, 2
	note G#, 4
	octave 1
	note D#, 2
	note A#, 2
	octave 2
	note D#, 1
	rest 1
	note C#, 2
	note D#, 4
	octave 1
	note G#, 4
	repeat_loop 0 ;------

Music_Town2_Ch4:
	sound_init 8 ; speed
	speed 8
	mark_loop ;------
	note C#, 4
	note C#, 4
	note C#, 4
	note D_, 4
	repeat_loop 0 ;------
