Music_UnsettlingPlace_Ch1:
	sound_init 6, \ ; speed
			   DUTY_50, DUTY_50, \ ; duty cycle
			   $c1, \ ; unknown 1
			   5, 2, \ ; vibrato
			   $8b, $26, $b5 ; unknown 2       
	stereo_panning $4
	unknown_volume $5
	unknown_music_e9 $a1
	speed 7
	fine_pitch $1
	duty_cycle DUTY_50, DUTY_50
	mark_loop ;------
	transpose -12
	octave 3
	note A#, 3
	rest 1
	note A#, 2
	note G#, 2
	note A#, 2
	note G#, 2
	note D#, 2
	note G_, 2
	note F_, 10
	note C#, 2
	note C_, 2
	note C#, 2
	note D#, 3
	rest 1
	note D#, 2
	note C#, 2
	note D#, 2
	note C#, 2
	note D#, 2
	note G_, 2
	note F_, 9
	note F_, 3
	note G#, 2
	note A_, 2
	note A#, 4
	note A#, 2
	note G#, 2
	note A#, 2
	note G#, 2
	note D#, 2
	note G_, 2
	note F_, 8
	note F_, 2
	note A#, 2
	octave 4
	note F_, 2
	octave 3
	note F_, 2
	octave 4
	note D#, 4
	note C#, 2
	note C_, 4
	octave 3
	note G#, 2
	note D#, 2
	note F_, 2
	note A#, 8
	note A#, 2
	octave 4
	note C_, 2
	note C#, 4
	note C_, 2
	note C_, 3
	note C_, 5
	note C#, 2
	note D#, 2
	note C_, 2
	note C#, 2
	note C_, 4
	octave 3
	note A#, 4
	note G#, 6
	note F#, 2
	note F#, 4
	note F#, 4
	note G#, 2
	note A#, 2
	note G#, 2
	note F_, 10
	rest 2
	note F_, 4
	note A#, 4
	note A#, 2
	octave 4
	note C_, 4
	note C#, 2
	note C_, 2
	octave 3
	note A#, 2
	note G_, 2
	note D#, 4
	note F_, 4
	octave 2
	note A#, 2
	octave 3
	note C_, 2
	note C#, 2
	note G#, 4
	note G_, 2
	note F_, 4
	note D#, 4
	note F_, 2
	octave 2
	note A#, 14
	rest 2
	repeat_loop 0 ;------

Music_UnsettlingPlace_Ch2:
	sound_init 6, \ ; speed
			   DUTY_50, DUTY_50, \ ; duty cycle
			   $c1, \ ; unknown 1
			   5, 2, \ ; vibrato
			   $8b, $26, $b5 ; unknown 2
	speed 7
	fine_pitch $2
	unknown_music_e9 $11
	mark_loop2 ;------
	transpose -24
	duty_cycle DUTY_25, DUTY_25
	stereo_panning $3
	octave 4
	note A#, 1
	octave 3
	note A#, 1
	octave 4
	note C_, 2
	octave 3
	note A#, 2
	octave 4
	note C_, 1
	octave 3
	note A#, 1
	octave 4
	note A#, 2
	octave 3
	note A#, 2
	octave 4
	note C_, 2
	octave 3
	note A#, 2
	octave 4
	note A#, 1
	rest 1
	note C_, 2
	octave 3
	note A#, 2
	octave 4
	note C_, 1
	octave 3
	note A#, 1
	octave 4
	note C_, 2
	note C#, 2
	note D#, 2
	note F_, 2
	note C#, 1
	octave 3
	note A#, 1
	octave 4
	note C#, 2
	note C_, 2
	octave 3
	note A#, 2
	octave 4
	note C#, 1
	note C_, 1
	note C#, 2
	note C_, 2
	octave 3
	note A#, 2
	octave 4
	note C#, 1
	note C_, 1
	note C#, 2
	note C_, 2
	octave 3
	note A#, 2
	octave 4
	note C_, 1
	note C#, 1
	note D#, 2
	note F_, 2
	note C#, 2
	note A#, 1
	octave 3
	note A#, 1
	octave 4
	note A#, 2
	note C_, 2
	octave 3
	note A#, 2
	octave 4
	note A#, 1
	octave 3
	note A#, 1
	octave 4
	note A#, 1
	rest 1
	note C_, 2
	rest 2
	note A#, 1
	octave 3
	note A#, 1
	octave 4
	note A#, 2
	note C_, 2
	octave 3
	note A#, 2
	octave 4
	note A#, 1
	octave 3
	note A#, 1
	octave 4
	note A#, 2
	note C_, 1
	rest 3
	note C#, 1
	octave 3
	note A#, 1
	octave 4
	note C#, 4
	rest 2
	note C_, 1
	note C_, 1
	rest 6
	note C#, 1
	octave 3
	note A#, 1
	octave 4
	note C#, 1
	note D#, 1
	note F_, 2
	note D#, 2
	note C#, 2
	note D#, 2
	note F_, 1
	rest 1
	note G#, 1
	rest 1
	octave 5
	note C_, 1
	octave 4
	note G#, 1
	octave 5
	note C_, 1
	rest 1
	note C_, 1
	octave 4
	note G#, 1
	octave 5
	note C_, 1
	rest 1
	note C_, 1
	octave 4
	note G#, 1
	octave 5
	note C_, 1
	rest 1
	note C_, 1
	octave 4
	note G#, 1
	octave 5
	note C_, 1
	rest 1
	note C#, 1
	octave 4
	note A#, 1
	octave 5
	note C#, 1
	rest 1
	note C#, 1
	octave 4
	note A#, 1
	octave 5
	note C#, 1
	rest 1
	note C#, 1
	octave 4
	note A#, 1
	octave 5
	note C#, 1
	rest 1
	note C#, 1
	octave 4
	note A#, 1
	octave 5
	note C#, 1
	rest 1
	octave 4
	note A#, 1
	note F#, 1
	note A#, 1
	rest 1
	note A#, 1
	note F#, 1
	note A#, 1
	rest 1
	note G#, 1
	note D#, 1
	note G#, 1
	rest 1
	note G#, 1
	note D#, 1
	note G#, 1
	rest 1
	note A#, 1
	note F_, 1
	note A#, 1
	rest 1
	note A#, 1
	note F_, 1
	note A#, 1
	rest 1
	note A#, 1
	note F_, 1
	note A#, 1
	rest 1
	note A#, 1
	note A#, 1
	rest 1
	octave 5
	note C_, 1
	octave 4
	note A#, 1
	note F_, 1
	note A#, 1
	rest 1
	note A#, 1
	note F_, 1
	note A#, 1
	rest 1
	note A#, 1
	note F_, 1
	note A#, 1
	rest 1
	note A#, 1
	note F_, 1
	note A#, 1
	rest 1
	octave 5
	note C#, 1
	octave 4
	note A#, 1
	octave 5
	note C#, 1
	rest 1
	note C#, 1
	octave 4
	note A#, 1
	octave 5
	note C#, 1
	rest 1
	octave 4
	note A#, 1
	note F_, 1
	note A#, 1
	rest 1
	note A#, 1
	note F_, 1
	note A#, 1
	rest 1
	note G#, 1
	note D#, 1
	note G#, 1
	rest 1
	note G#, 1
	note D#, 1
	note G#, 1
	rest 1
	note G#, 1
	note D#, 1
	note G#, 1
	rest 1
	note G#, 1
	note D#, 1
	note G#, 1
	rest 1
	note A#, 1
	note F_, 1
	note A#, 1
	rest 1
	note A#, 1
	note F_, 1
	note A#, 1
	rest 1
	note A#, 1
	note F_, 1
	note A#, 1
	rest 1
	octave 5
	note C_, 2
	note C#, 2
	repeat_loop2 0 ;------

Music_UnsettlingPlace_Ch3:
	sound_init 6, \ ; speed
			   $5, $86, $b0 ; unknown
	stereo_panning $4
	speed 7
	transpose 12
	mark_loop ;------
	octave 1
	note A#, 1
	rest 1
	note A#, 1
	rest 5
	note A#, 7
	rest 1
	note A#, 1
	rest 1
	note A#, 1
	rest 5
	note A#, 7
	rest 1
	note A#, 1
	rest 1
	note A#, 1
	rest 5
	note A#, 7
	rest 1
	note A#, 1
	rest 1
	note A#, 1
	rest 5
	note A#, 7
	rest 1
	note A#, 1
	rest 1
	note A#, 1
	rest 5
	note A#, 7
	rest 1
	note A#, 1
	rest 1
	note A#, 1
	rest 5
	note A#, 7
	rest 1
	note A#, 1
	rest 1
	note A#, 1
	rest 5
	note A#, 7
	rest 1
	note A#, 1
	rest 1
	note A#, 1
	rest 5
	note A#, 4
	note G#, 4
	note F#, 2
	note F#, 2
	rest 4
	note F#, 1
	rest 7
	note A#, 1
	rest 1
	note A#, 2
	rest 4
	note A#, 8
	note F#, 1
	rest 1
	note F#, 2
	rest 4
	note G#, 2
	note G#, 1
	rest 5
	note A#, 2
	note A#, 1
	rest 5
	note A#, 4
	note G#, 4
	note A#, 1
	rest 1
	note A#, 2
	rest 4
	note A#, 1
	rest 1
	note A#, 2
	rest 4
	octave 2
	note D#, 1
	rest 1
	note D#, 2
	rest 4
	octave 1
	note A#, 4
	note G#, 4
	note F#, 2
	note F#, 2
	rest 4
	note G#, 1
	rest 1
	note G#, 5
	rest 1
	note A#, 6
	note A#, 1
	rest 1
	note A#, 6
	rest 2
	repeat_loop 0 ;------

Music_UnsettlingPlace_Ch4:
	sound_init 6 ; speed
	speed 7
	mark_loop ;------
	note C#, 1
	rest 1
	note C#, 1
	rest 1
	note C#, 1
	rest 1
	note C#, 1
	rest 1
	octave 2
	note F_, 1
	rest 1
	octave 3
	note C#, 1
	rest 1
	note C#, 1
	rest 3
	note C#, 1
	rest 1
	note C#, 1
	rest 1
	note C#, 1
	rest 1
	note C#, 1
	rest 1
	octave 2
	note F_, 1
	rest 1
	octave 3
	note C#, 1
	rest 1
	note D#, 1
	rest 3
	note C#, 1
	rest 1
	note C#, 1
	rest 1
	note C#, 1
	rest 1
	note C#, 1
	rest 1
	octave 2
	note F_, 1
	rest 1
	octave 3
	note C#, 1
	rest 1
	note C#, 1
	rest 3
	note C#, 1
	rest 1
	note C#, 1
	rest 1
	note C#, 1
	rest 1
	note C#, 1
	rest 1
	octave 2
	note F_, 1
	rest 1
	octave 3
	note C#, 1
	rest 1
	note D#, 1
	rest 1
	note C#, 1
	rest 1
	repeat_loop 0 ;------
	sound_end
